<svg width="1116" height="353" viewBox="0 0 1116 353" fill="none" xmlns="http://www.w3.org/2000/svg">
<path d="M265.215 138.5V138H347.715V351H0.714844V268.5H265.215V221H0.714844V138.5H161.715V86H0.714844V2.99998H161.715H244.215V138.5H265.215ZM476.57 217V352.5H394.07V151L538.57 2.99998H741.07V85.5H582.07L536.57 134.5H741.07V217H476.57ZM460.07 217H462.07V214.5L460.07 217ZM1115.16 0.499983V83.5H985.16V0.499983H1115.16ZM901.66 0.499983V83.5H771.66V0.499983H901.66ZM984.16 86V351H901.66V86H984.16Z" fill="#BE0F0F"/>
</svg>
